<svg width="180" height="180" viewBox="0 0 180 180" xmlns="http://www.w3.org/2000/svg">
<style>.px{shape-rendering:crispEdges}</style>
<g class="px">
  <rect x="18" y="0" width="18" height="18" fill="#D4956A"/>
  <rect x="36" y="0" width="18" height="18" fill="#D4956A"/>
  <rect x="54" y="0" width="18" height="18" fill="#C07A50"/>
  <rect x="72" y="0" width="18" height="18" fill="#C07A50"/>
  <rect x="90" y="0" width="18" height="18" fill="#D4956A"/>
  <rect x="108" y="0" width="18" height="18" fill="#D4956A"/>

  <rect x="0" y="18" width="18" height="18" fill="#C07A50"/>
  <rect x="18" y="18" width="18" height="18" fill="#E8B080"/>
  <rect x="36" y="18" width="18" height="18" fill="#E8B080"/>
  <rect x="54" y="18" width="18" height="18" fill="#F0C090"/>
  <rect x="72" y="18" width="18" height="18" fill="#F0C090"/>
  <rect x="90" y="18" width="18" height="18" fill="#E8B080"/>
  <rect x="108" y="18" width="18" height="18" fill="#E8B080"/>
  <rect x="126" y="18" width="18" height="18" fill="#C07A50"/>

  <rect x="0" y="36" width="18" height="18" fill="#C07A50"/>
  <rect x="18" y="36" width="18" height="18" fill="#E8B080"/>
  <rect x="36" y="36" width="18" height="18" fill="#F8D8A8"/>
  <rect x="54" y="36" width="18" height="18" fill="#8B4A2A"/>
  <rect x="72" y="36" width="18" height="18" fill="#8B4A2A"/>
  <rect x="90" y="36" width="18" height="18" fill="#F8D8A8"/>
  <rect x="108" y="36" width="18" height="18" fill="#E8B080"/>
  <rect x="126" y="36" width="18" height="18" fill="#C07A50"/>

  <rect x="0" y="54" width="18" height="18" fill="#D4956A"/>
  <rect x="18" y="54" width="18" height="18" fill="#E8B080"/>
  <rect x="36" y="54" width="18" height="18" fill="#8B4A2A"/>
  <rect x="54" y="54" width="18" height="18" fill="#E8B080"/>
  <rect x="72" y="54" width="18" height="18" fill="#F8D8A8"/>
  <rect x="90" y="54" width="18" height="18" fill="#8B4A2A"/>
  <rect x="108" y="54" width="18" height="18" fill="#E8B080"/>
  <rect x="126" y="54" width="18" height="18" fill="#D4956A"/>

  <rect x="0" y="72" width="18" height="18" fill="#C07A50"/>
  <rect x="18" y="72" width="18" height="18" fill="#E8B080"/>
  <rect x="36" y="72" width="18" height="18" fill="#F8D8A8"/>
  <rect x="54" y="72" width="18" height="18" fill="#F8D8A8"/>
  <rect x="72" y="72" width="18" height="18" fill="#F8D8A8"/>
  <rect x="90" y="72" width="18" height="18" fill="#F8D8A8"/>
  <rect x="108" y="72" width="18" height="18" fill="#E8B080"/>
  <rect x="126" y="72" width="18" height="18" fill="#C07A50"/>

  <rect x="18" y="90" width="18" height="18" fill="#D4956A"/>
  <rect x="36" y="90" width="18" height="18" fill="#E8B080"/>
  <rect x="54" y="90" width="18" height="18" fill="#E8B080"/>
  <rect x="72" y="90" width="18" height="18" fill="#E8B080"/>
  <rect x="90" y="90" width="18" height="18" fill="#E8B080"/>
  <rect x="108" y="90" width="18" height="18" fill="#D4956A"/>

  <rect x="36" y="108" width="18" height="18" fill="#C07A50"/>
  <rect x="54" y="108" width="18" height="18" fill="#D4956A"/>
  <rect x="72" y="108" width="18" height="18" fill="#D4956A"/>
  <rect x="90" y="108" width="18" height="18" fill="#C07A50"/>
</g>
</svg>
